<svg xmlns="http://www.w3.org/2000/svg" xmlns:xlink="http://www.w3.org/1999/xlink" viewBox="0 0 473.5 473.4"><defs><style>.cls-1{fill:url(#Безымянный_градиент);}.cls-2{fill:#fff;}</style><radialGradient id="Безымянный_градиент" cx="23.04" cy="384.15" r="684.52" gradientTransform="matrix(1, -0.05, -0.04, -0.85, 2.68, 757.27)" gradientUnits="userSpaceOnUse"><stop offset="0" stop-color="#fed576"/><stop offset="0.26" stop-color="#f47133"/><stop offset="0.61" stop-color="#bc3081"/><stop offset="1" stop-color="#4c63d2"/></radialGradient></defs><title>ingРесурс 2</title><g id="Слой_2" data-name="Слой 2"><g id="Слой_1-2" data-name="Слой 1"><g id="Background"><polygon class="cls-1" points="0 61.8 0 93 0 396.9 0 411.6 0 473.4 61.9 473.4 64.3 473.4 380.4 473.4 411.6 473.4 473.5 473.4 473.5 411.6 473.5 380.4 473.5 93 473.5 61.8 473.5 0 411.6 0 380.4 0 93 0 61.9 0 0 0 0 61.8"/></g><g id="Symbol"><path class="cls-2" d="M235.7,120.6c37.9,0,42.4.1,57.4.8,13.8.6,21.4,2.9,26.4,4.9a46.9,46.9,0,0,1,26.9,26.9c1.9,5,4.3,12.5,4.9,26.4.7,15,.8,19.5.8,57.4s-.1,42.4-.8,57.4c-.6,13.8-2.9,21.4-4.9,26.4a46.9,46.9,0,0,1-26.9,26.9c-5,1.9-12.5,4.3-26.4,4.9-15,.7-19.5.8-57.4.8s-42.4-.1-57.4-.8c-13.8-.6-21.4-2.9-26.4-4.9A46.9,46.9,0,0,1,125,320.8c-1.9-5-4.3-12.5-4.9-26.4-.7-15-.8-19.5-.8-57.4s.1-42.4.8-57.4c.6-13.8,2.9-21.4,4.9-26.4a46.9,46.9,0,0,1,26.9-26.9c5-1.9,12.5-4.3,26.4-4.9,15-.6,19.5-.8,57.4-.8m0-25.6c-38.6,0-43.4.2-58.6.9s-25.4,3.1-34.5,6.6a69.75,69.75,0,0,0-25.2,16.4A68.92,68.92,0,0,0,101,144.1c-3.5,9-5.9,19.4-6.6,34.5s-.9,20-.9,58.6.2,43.4.9,58.6,3.1,25.4,6.6,34.5a69.75,69.75,0,0,0,16.4,25.2,68.92,68.92,0,0,0,25.2,16.4c9,3.5,19.4,5.9,34.5,6.6s20,.9,58.6.9,43.4-.2,58.6-.9,25.4-3.1,34.5-6.6A69.75,69.75,0,0,0,354,355.5a68.92,68.92,0,0,0,16.4-25.2c3.5-9,5.9-19.4,6.6-34.5s.9-20,.9-58.6-.2-43.4-.9-58.6-3.1-25.4-6.6-34.5A69.75,69.75,0,0,0,354,118.9a68.92,68.92,0,0,0-25.2-16.4c-9-3.5-19.4-5.9-34.5-6.6s-20-.9-58.6-.9Z"/><path class="cls-2" d="M235.7,164.1A72.9,72.9,0,1,0,308.6,237,72.91,72.91,0,0,0,235.7,164.1Zm0,120.3A47.3,47.3,0,1,1,283,237.1,47.27,47.27,0,0,1,235.7,284.4Z"/><circle class="cls-2" cx="311.6" cy="161.3" r="17"/></g></g></g></svg>